# xmcd CD database file
#
# Track frame offsets:
#	150
#	21512
#	39125
#	65150
#
# Disc length: 1153 seconds
#
# Revision: 0
# Processed by: cddbd v1.5PL3 Copyright (c) Steve Scherf et al.
# Submitted via: CDex 1.51
#
DISCID=30047f04
DTITLE=小松未歩 - 翼はなくても
DYEAR=2003
DGENRE=JPop
TTITLE0=翼はなくても
TTITLE1=I'll tell you
TTITLE2=遠い空で
TTITLE3=翼はなくても -Instrumental-
EXTD=YEAR: 2003
EXTT0=
EXTT1=
EXTT2=
EXTT3=
PLAYORDER=
